<?xml version="1.0" encoding="UTF-8"?>
<svg id="Layer_1" data-name="Layer 1" xmlns="http://www.w3.org/2000/svg" viewBox="0 0 1000 1000">
  <defs>
    <style>
      .cls-1 {
        letter-spacing: .14em;
      }

      .cls-2 {
        fill: #f3b2b2;
      }

      .cls-2, .cls-3, .cls-4, .cls-5, .cls-6, .cls-7, .cls-8 {
        stroke-width: 0px;
      }

      .cls-3 {
        fill: #e8e7e7;
      }

      .cls-4 {
        fill: #d23e3d;
      }

      .cls-9 {
        letter-spacing: .2em;
      }

      .cls-10 {
        stroke: #e95e5e;
      }

      .cls-10, .cls-11 {
        stroke-width: 10.36px;
      }

      .cls-10, .cls-11, .cls-12 {
        stroke-linecap: round;
        stroke-linejoin: round;
      }

      .cls-10, .cls-11, .cls-5 {
        fill: #323544;
      }

      .cls-13 {
        letter-spacing: .15em;
      }

      .cls-11, .cls-12 {
        stroke: #d23e3d;
      }

      .cls-12 {
        fill: none;
        stroke-width: 28.57px;
      }

      .cls-14 {
        letter-spacing: .18em;
      }

      .cls-15 {
        letter-spacing: .2em;
      }

      .cls-16 {
        letter-spacing: .16em;
      }

      .cls-17 {
        letter-spacing: .19em;
      }

      .cls-18 {
        letter-spacing: .19em;
      }

      .cls-19 {
        fill: #e2e2e2;
        font-family: VisbyCF-Medium, 'Visby CF';
        font-size: 31.08px;
        font-weight: 500;
      }

      .cls-6 {
        fill: #b12125;
      }

      .cls-7 {
        fill: #d23f3f;
      }

      .cls-8 {
        fill: #993231;
      }
    </style>
  </defs>
  <g>
    <path class="cls-4" d="M141.12,684.43c0-28.13,21.45-46.04,46.8-46.04,13.12,0,28.01,4.79,37.22,20.82l-16.02,10.98c-4.67-6.94-11.86-10.72-20.69-10.72-13.37,0-24.47,9.34-24.47,24.98s11.36,24.98,24.72,24.98c9.09,0,15.77-3.79,20.44-10.85l16.02,11.1c-9.21,16.02-24.22,20.82-37.34,20.82-25.36,0-46.68-17.91-46.68-46.05Z"/>
    <path class="cls-4" d="M295.36,639.65l33.81,89.57h-23.97l-4.42-12.74h-34.57l-4.41,12.74h-24.1l33.81-89.57h23.84ZM293.59,696.16l-10.22-29.27-10.09,29.27h20.31Z"/>
    <path class="cls-4" d="M349.12,639.65h22.2v69.25h31.79v20.31h-53.99v-89.57Z"/>
    <path class="cls-4" d="M417.53,684.43c0-27.37,21.07-46.04,46.68-46.04s46.55,18.67,46.55,46.04-21.07,46.05-46.55,46.05-46.68-18.67-46.68-46.05ZM464.2,709.41c13.12,0,23.72-9.72,23.72-24.98s-10.6-24.98-23.72-24.98-23.84,9.71-23.84,24.98,10.6,24.98,23.84,24.98Z"/>
    <path class="cls-4" d="M533.44,638.72h22.2v69.25h31.79v20.31h-53.99v-89.57Z"/>
    <path class="cls-4" d="M611.97,639.65h52.85v20.31h-30.65v14.13h25.48v20.06h-25.48v14.76h31.66v20.31h-53.87v-89.57Z"/>
    <path class="cls-4" d="M690.38,639.65h22.2l34.31,53.23h.63v-53.23h22.2v89.57h-22.2l-34.31-53.23h-.63v53.23h-22.2v-89.57Z"/>
    <path class="cls-4" d="M793.66,707.89l17.91-8.33c2.52,5.17,6.56,10.98,14.38,10.98,5.17,0,9.84-2.53,9.84-8.58,0-4.29-2.02-6.44-9.97-9.59l-5.55-2.15c-11.6-4.67-23.34-11.1-23.34-26.36s13.37-25.48,29.14-25.48,25.74,9.71,30.15,19.18l-16.4,9.33c-3.91-6.56-8.2-8.96-12.87-8.96s-8.2,2.02-8.2,6.31c0,3.28,1.89,5.93,10.98,9.47l6.06,2.39c16.52,6.69,23.09,14.13,23.09,26.12,0,19.3-17.29,28.26-32.55,28.26s-29.26-9.47-32.67-22.58Z"/>
  </g>
  <path class="cls-8" d="M265.16,385.38s-26.57,4.74-31.64,45.08c6.8,41.01,53.79,160.05,53.79,160.05h41.85"/>
  <path class="cls-8" d="M333.83,385.38c-17.66-46.38,33.82-103.79,45.78-117.16,12.29-13.74,24.99-29.45,28.29-39.26,5.16-15.31-35.73-51.31-35.73-51.31l18.54-3.36s28.44,19.84,31.75,22.49,0,55.56,0,55.56c0,0-72.02,82.82-65.61,92.55,10.72,16.27-23.01,40.51-23.01,40.51Z"/>
  <path class="cls-6" d="M261.3,344.26s-8.49,4.52-7.83,9.37,10.25,34.72,11.13,34.72,7.72-7.72,7.72-10.36-6.39-32.63-6.39-32.63l-4.63-1.1Z"/>
  <path class="cls-8" d="M620.06,198.13s-19.8,3.67-31.27,22.63c-11.46,18.96-25.19,50.49-58.09,72.15,0,0,52.69,4.12,53.57,4.12s35.79-69.82,35.79-69.82v-29.07Z"/>
  <path class="cls-7" d="M658.72,376.55c-1.61,1.09-3.32,2.18-5.08,3.26l-8.08-.36-14.77-.73-255.77-11.97-12.59-.57c-.16-.73-.36-1.45-.52-2.12-1.87-7.98-19.67,17.94-19.69,10.93-.1-56.85,50.79-92.9,72.29-124.31,23.14-33.82-27.38-64.27-42.35-73.03-1.82-1.07-1.72-3.71.18-4.63,21.64-10.48,115.9-49.84,132.29,50.74,5.34,32.9,12.95,51.13,21.24,60.3,11.4,12.74,24.14,7.77,33.73,0,7.31-5.85,12.74-13.37,14.45-15.85,14.82-21.34,42.17-88.64,52.37-65.43,8.08,18.38-17.3,61.28,23.01,91.74,40.82,30.77,46.94,56.63,9.27,82.01Z"/>
  <path class="cls-10" d="M698.8,542.96l42.27-115.8c5.81-15.92-5.98-32.77-22.92-32.77h-50.09c-9.35,0-17.88-5.34-21.96-13.76l-33.87-69.85c-4.08-8.41-12.61-13.76-21.96-13.76h-180.55c-9.35,0-17.88,5.34-21.96,13.76l-33.87,69.85c-4.08,8.41-12.61,13.76-21.96,13.76h-50.09c-16.95,0-28.74,16.85-22.92,32.77l41.8,114.51c7.87,21.57,28.39,35.92,51.35,35.92h297.22c22.14,0,41.91-13.83,49.51-34.63Z"/>
  <path class="cls-7" d="M748.76,397.37c-6.99-10-18.44-15.96-30.62-15.96h-50.1c-3.73,0-7.25-1.87-9.33-4.87-.41-.47-.73-.98-.98-1.55l-33.83-69.89c-6.22-12.74-19.43-21.03-33.62-21.03h-30.67c-9.58,7.77-22.33,12.74-33.73,0h-116.15c-14.25,0-27.41,8.29-33.62,21.03l-17.67,36.47-16.22,33.42c-1.87,3.89-5.96,6.42-10.31,6.42h-50.05c-12.23,0-23.68,5.96-30.62,15.96-6.99,10-8.65,22.8-4.51,34.24l54.92,150.4c1.87,5.13,6.73,8.5,12.17,8.5h372.34c5.44,0,10.26-3.37,12.12-8.5l54.92-150.4c4.2-11.45,2.54-24.25-4.46-34.24ZM322.9,564.61l-51.81-141.9c-1.3-3.57-.83-7.36,1.35-10.47,2.18-3.11,5.6-4.92,9.43-4.92h50.05c14.25,0,27.41-8.24,33.62-21.03l9.48-19.53,24.4-50.31c1.92-3.94,5.96-6.48,10.31-6.48h180.55c4.35,0,8.39,2.54,10.31,6.48l30.2,62.27,3.68,7.56c6.17,12.8,19.38,21.03,33.57,21.03h50.1c3.78,0,7.2,1.81,9.38,4.92,2.18,3.11,2.69,6.89,1.4,10.47l-51.81,141.9h-354.21Z"/>
  <circle class="cls-12" cx="500" cy="450.09" r="83.88"/>
  <rect class="cls-11" x="267.67" y="342.4" width="43.65" height="47.62" rx=".64" ry=".64" transform="translate(-85.89 88.72) rotate(-15.2)"/>
  <path class="cls-3" d="M505.66,391.57c-.32-.22-.78-.4-1.09-.47.4.12,1.57.37,2.01.46,32.67,6.98,50.55,31.01,50.84,63.95,0,2.31-3.41,2.53-3.67.19-1.86-21.4-11.45-40.68-31.89-49.47-6.02-2.66-12.5-4.14-19.02-4.96-.51-.09-1.1-.2-1.58-.4-6.96-2.85-2.25-12.87,4.41-9.31h0Z"/>
  <path class="cls-2" d="M467.65,177.22c11.24,7.75,18.68,20.18,22.24,33.1.4,1.91.93,4.03,1.28,5.94.16,1.27.62,4.72.76,5.96.06,1.31.18,4.61.24,5.95,0,2.63-.21,5.25-.32,7.85-.03.84-.74,1.5-1.59,1.47-.81-.03-1.42-.69-1.47-1.47-.37-2.5-.62-4.98-1.07-7.43-.28-1.24-.96-4.24-1.23-5.43-.35-1.08-1.32-4.12-1.69-5.24-.91-2.2-1.79-4.53-2.94-6.62-4.63-8.99-11.78-17.12-20.9-21.43-8.21-4.72-1.87-16.78,6.69-12.66h0Z"/>
  <path class="cls-2" d="M618.01,240.09c-2.36,13.49-1.86,28.78,5.11,40.79,2.19,3.75,5.12,6.95,8.53,9.56,2.51,1.85,3,5.43,1.06,7.87-1.99,2.55-5.82,2.82-8.15.58-4.14-3.84-7.59-8.48-9.93-13.59-2.36-5.04-3.7-10.36-4.37-15.63-.94-7.89-.49-15.65.93-23.35.49-2.55,1.03-4.99,1.82-7.59.41-1.37,1.86-2.14,3.23-1.73,1.33.4,2.09,1.77,1.77,3.09h0Z"/>
  <rect class="cls-5" x="418.76" y="271.29" width="34.41" height="32.3" rx=".76" ry=".76"/>
  <text class="cls-19" transform="translate(294.03 793.13)"><tspan class="cls-14" x="0" y="0">C</tspan><tspan class="cls-15" x="28.19" y="0">A</tspan><tspan class="cls-1" x="55.8" y="0">L</tspan><tspan class="cls-9" x="75.63" y="0">O</tspan><tspan class="cls-18" x="107.3" y="0">R</tspan><tspan class="cls-15" x="131.71" y="0">IES DET</tspan><tspan class="cls-16" x="272.45" y="0">E</tspan><tspan class="cls-17" x="292.75" y="0">C</tspan><tspan class="cls-13" x="321.26" y="0">T</tspan><tspan class="cls-15" x="342.39" y="0">OR</tspan></text>
</svg>