<svg width="80" height="80" viewBox="0 0 80 80" fill="none" xmlns="http://www.w3.org/2000/svg">
<rect width="80" height="80" rx="8" fill="#DCFFAF"/>
<g clip-path="url(#clip0_31_150)">
<path d="M11.5467 51.179H42.628C42.8467 51.179 43.0554 51.0858 43.2024 50.9237C43.3494 50.7617 43.4214 50.5452 43.4004 50.3274C42.8021 44.1319 35.7272 39.2415 27.0873 39.2415C18.4474 39.2415 11.3724 44.132 10.7743 50.3275C10.7532 50.5454 10.8247 50.7622 10.9719 50.9244C11.1189 51.0866 11.3277 51.179 11.5467 51.179Z" fill="black"/>
<path d="M42.6279 58.7606H11.5467C11.3278 58.7606 11.119 58.8532 10.9719 59.0153C10.8248 59.1775 10.7533 59.3943 10.7743 59.6123C10.9373 61.2985 11.5804 62.888 12.6041 64.3086C13.2637 65.2237 14.3237 65.7653 15.4519 65.7653H38.7227C39.8491 65.7653 40.9118 65.2224 41.5703 64.3086C42.594 62.888 43.2372 61.2985 43.4002 59.6123C43.4212 59.3945 43.3493 59.178 43.2022 59.0159C43.0551 58.8539 42.8467 58.7606 42.6279 58.7606Z" fill="black"/>
<path d="M42.2229 53.0389H11.9517C10.8738 53.0389 10 53.9126 10 54.9904C10 56.0683 10.8738 56.9419 11.9517 56.9419H42.2229C43.3008 56.9419 44.1745 56.0681 44.1745 54.9904C44.1745 53.9126 43.3007 53.0389 42.2229 53.0389Z" fill="black"/>
<path d="M68.0483 33.5965C67.7719 33.5965 67.6114 33.2934 67.7572 33.0586C67.9379 32.7673 68.0441 32.4249 68.0482 32.0576C68.0605 30.9718 67.1257 30.0835 66.0398 30.0835H57.7533L58.3985 21.052L65.333 24.001C66.3534 24.435 67.5376 23.9329 67.9276 22.8809C68.2929 21.8956 67.7768 20.7988 66.8099 20.3874L57.4105 16.3904C56.8303 16.1437 56.1667 16.1924 55.6289 16.5212C55.0909 16.8501 54.7451 17.4184 54.7002 18.0473L53.8403 30.0837H45.4776C44.3917 30.0837 43.4569 30.9719 43.4691 32.0577C43.4733 32.425 43.5794 32.7674 43.7601 33.0587C43.9058 33.2936 43.7453 33.5966 43.469 33.5966C42.3912 33.5966 41.5175 34.4704 41.5175 35.5483C41.5175 36.4794 42.1486 37.4515 43.0423 37.4515C50.4435 37.4515 61.2119 37.4515 68.4751 37.4515C69.3689 37.4515 70 36.4792 70 35.5483C70 34.4702 69.1262 33.5965 68.0483 33.5965Z" fill="black"/>
<path d="M47.369 64.1734C47.4761 65.0813 48.2457 65.7654 49.1598 65.7654H62.3574C63.2716 65.7654 64.0412 65.0813 64.1483 64.1734L67.0822 39.3111H44.4351L47.369 64.1734Z" fill="black"/>
</g>
<defs>
<clipPath id="clip0_31_150">
<rect x="10" y="11" width="60" height="60" rx="8" fill="white"/>
</clipPath>
</defs>
</svg>
