<svg width="80" height="80" viewBox="0 0 80 80" fill="none" xmlns="http://www.w3.org/2000/svg">
<rect width="80" height="80" rx="8" fill="#DCFFAF"/>
<path d="M46.6324 44.5832C46.6324 48.2485 43.6653 51.2156 40 51.2156C36.3347 51.2156 33.3676 48.2485 33.3676 44.5832C33.3676 40.9179 36.3347 37.9507 40 37.9507C43.6653 37.9507 46.6324 40.9179 46.6324 44.5832ZM60.2053 27.961C62.8542 27.961 65 30.1068 65 32.7556V45.3224V55.9795C65 58.8029 62.7105 61.0924 59.8871 61.0924H20.1129C17.2895 61.0924 15 58.8029 15 55.9795V45.3121V32.7556C15 30.1068 17.1458 27.961 19.7947 27.961H27.4216C28.5717 27.961 29.571 27.1705 29.8357 26.0513C30.5236 23.0945 33.1622 21 36.2012 21H43.809C46.848 21 49.4867 23.0945 50.1745 26.0513C50.433 27.1693 51.4286 27.961 52.576 27.961H60.2053ZM25 34.8809C25 33.5565 23.922 32.4784 22.5975 32.4784C21.2628 32.4784 20.1848 33.5565 20.1848 34.8809C20.1848 36.2053 21.2628 37.2834 22.5873 37.2834C23.922 37.2936 25 36.2156 25 34.8809ZM51.8275 44.5832C51.8275 38.0534 46.5298 32.7556 40 32.7556C33.4702 32.7556 28.1725 38.0534 28.1725 44.5832C28.1725 51.1129 33.4702 56.4107 40 56.4107C46.5298 56.4107 51.8275 51.1129 51.8275 44.5832Z" fill="black"/>
</svg>
