<svg width="80" height="80" viewBox="0 0 80 80" fill="none" xmlns="http://www.w3.org/2000/svg">
<rect width="80" height="80" rx="8" fill="#DCFFAF"/>
<path d="M60 24.2707V63.2285C60 66.4107 57.4741 69 54.3696 69H28.6814C25.5769 69 23.0511 66.4107 23.0511 63.2285V40.3739C23.0511 39.0793 24.2197 38.1231 25.5143 38.1231C26.4524 38.1231 27.2738 38.834 27.2738 39.772V63.2285C27.2738 64.0239 27.9051 64.6712 28.6814 64.6712H54.3696C55.1456 64.6712 55.7771 64.0238 55.7771 63.2285V24.2707C55.7771 23.475 55.1455 22.8279 54.3696 22.8279H42.3194C41.2789 22.8279 40.4456 21.9534 40.3171 20.921C40.1622 19.6774 41.0691 18.4993 42.3222 18.4993H54.3696C57.4741 18.4992 60 21.0883 60 24.2707ZM25.2792 36.2241C17.9568 36.2241 12 30.1179 12 22.6122C12.0001 15.1062 17.9568 9 25.2792 9C32.6014 9 38.5584 15.1062 38.5584 22.6122C38.5584 30.1179 32.6014 36.2241 25.2792 36.2241ZM25.2792 33.3383C31.0487 33.3383 35.743 28.5272 35.743 22.6122C35.743 16.697 31.0494 11.8858 25.2792 11.8858C19.5088 11.8858 14.8152 16.697 14.8152 22.6122C14.8152 28.5272 19.5095 33.3383 25.2792 33.3383ZM33.2432 24.0552C34.0202 24.0552 34.6508 23.4088 34.6508 22.6124C34.6508 21.8159 34.0202 21.1695 33.2432 21.1695H32.3509C29.2227 21.1695 26.6868 18.6336 26.6868 15.5054C26.6868 14.7089 26.0562 14.0625 25.2792 14.0625C24.5022 14.0625 23.8717 14.7089 23.8717 15.5054V22.6124C23.8717 23.4088 24.5022 24.0552 25.2792 24.0552H33.2432ZM49.4891 35.7539H34.2404C33.4634 35.7539 32.8329 36.4003 32.8329 37.1968C32.8329 37.9933 33.4634 38.6396 34.2404 38.6396H49.4891C50.2665 38.6396 50.8967 37.9932 50.8967 37.1968C50.8968 36.4003 50.2665 35.7539 49.4891 35.7539ZM49.5139 44.5063H34.2652C33.4882 44.5063 32.8576 45.1523 32.8576 45.9491C32.8576 46.7459 33.4882 47.3919 34.2652 47.3919H49.5139C50.2912 47.3919 50.9213 46.7459 50.9213 45.9491C50.9213 45.1523 50.2919 44.5063 49.5139 44.5063ZM49.5139 53.6208H34.2652C33.4882 53.6208 32.8576 54.2676 32.8576 55.0637C32.8576 55.8605 33.4882 56.5064 34.2652 56.5064H49.5139C50.2912 56.5064 50.9213 55.8604 50.9213 55.0637C50.9215 54.2674 50.2919 53.6208 49.5139 53.6208Z" fill="black"/>
</svg>
